<?xml version="1.0" encoding="UTF-8" standalone="no"?>
<!-- Created with Inkscape (http://www.inkscape.org/) -->

<svg
   xmlns:dc="http://purl.org/dc/elements/1.1/"
   xmlns:cc="http://creativecommons.org/ns#"
   xmlns:rdf="http://www.w3.org/1999/02/22-rdf-syntax-ns#"
   xmlns:svg="http://www.w3.org/2000/svg"
   xmlns="http://www.w3.org/2000/svg"
   xmlns:sodipodi="http://sodipodi.sourceforge.net/DTD/sodipodi-0.dtd"
   xmlns:inkscape="http://www.inkscape.org/namespaces/inkscape"
   width="512"
   height="512"
   viewBox="0 0 135.46496 135.46496"
   version="1.1"
   id="svg8"
   inkscape:version="0.92.3 (2405546, 2018-03-11)"
   sodipodi:docname="2.svg"
   inkscape:export-filename="C:\Users\mbp\Desktop\16.png"
   inkscape:export-xdpi="24"
   inkscape:export-ydpi="24">
  <defs
     id="defs2">
    <inkscape:perspective
       sodipodi:type="inkscape:persp3d"
       inkscape:vp_x="335.00143 : 122.77376 : 1"
       inkscape:vp_y="0 : 999.98736 : 0"
       inkscape:vp_z="544.99879 : 122.77376 : 1"
       inkscape:persp3d-origin="440.00011 : 73.274383 : 1"
       id="perspective11771" />
    <filter
       style="color-interpolation-filters:sRGB"
       inkscape:label="Cross Blur"
       id="filter4532">
      <feColorMatrix
         in="SourceGraphic"
         values="1 0 0 0 0 0 1 0 0 0 0 0 1 0 0 -0.2125 -0.7154 -0.0721 1 0 "
         result="colormatrix"
         id="feColorMatrix4522" />
      <feComposite
         in="SourceGraphic"
         in2="colormatrix"
         operator="arithmetic"
         k2="1"
         k3="0"
         k4="0"
         result="composite"
         id="feComposite4524"
         k1="0" />
      <feGaussianBlur
         stdDeviation="5 0.01"
         result="blur1"
         id="feGaussianBlur4526" />
      <feGaussianBlur
         in="composite"
         stdDeviation="0.01 5"
         result="blur2"
         id="feGaussianBlur4528" />
      <feBlend
         in="blur2"
         in2="blur1"
         mode="darken"
         result="blend"
         id="feBlend4530" />
    </filter>
    <filter
       style="color-interpolation-filters:sRGB"
       inkscape:label="Cross Blur"
       id="filter4544">
      <feColorMatrix
         in="SourceGraphic"
         values="1 0 0 0 0 0 1 0 0 0 0 0 1 0 0 -0.2125 -0.7154 -0.0721 1 0 "
         result="colormatrix"
         id="feColorMatrix4534" />
      <feComposite
         in="SourceGraphic"
         in2="colormatrix"
         operator="arithmetic"
         k2="1"
         k3="0"
         k4="0"
         result="composite"
         id="feComposite4536"
         k1="0" />
      <feGaussianBlur
         stdDeviation="5 0.01"
         result="blur1"
         id="feGaussianBlur4538" />
      <feGaussianBlur
         in="composite"
         stdDeviation="0.01 5"
         result="blur2"
         id="feGaussianBlur4540" />
      <feBlend
         in="blur2"
         in2="blur1"
         mode="darken"
         result="blend"
         id="feBlend4542" />
    </filter>
    <symbol
       id="FourWheelDriveRoad_Inv">
      <title
         id="title7666">Four Wheel Drive Road</title>
      <rect
         x="0.13229166"
         y="0.13229166"
         width="18.785418"
         height="18.785418"
         ry="1.5875"
         style="stroke:#ffffff;stroke-width:0.26458332"
         id="rect7668" />
      <path
         inkscape:connector-curvature="0"
         d="M 17.065625,9.9880208 V 8.0697917 C 17.065625,7.540625 16.66875,7.4083333 16.404167,7.4083333 H 12.633854 L 11.244792,5.0932292 H 10.451042 L 11.840104,7.4083333 10.781771,9.1942708 H 8.334375 C 7.540625,7.540625 5.8208333,7.6067708 5.8208333,7.6067708 H 1.3229167 V 11.641667 H 1.984375 A 2.8045833,2.8045833 0 0 1 7.540625,11.641667 H 11.509375 A 2.8045833,2.8045833 0 0 1 17.065625,11.641667 H 17.330208 C 17.594792,11.641667 17.793229,11.443229 17.793229,11.178646 V 9.9880208 Z"
         style="fill:#ffffff;stroke:none;stroke-width:0.26458332"
         id="path7670" />
      <g
         style="fill:none;stroke:#ffffff;stroke-width:4"
         id="g7676">
        <circle
           style="stroke-width:1.05833328"
           cx="4.7624998"
           cy="12.005468"
           r="1.3229166"
           id="circle7672" />
        <circle
           style="stroke-width:1.05833328"
           cx="14.2875"
           cy="12.005468"
           r="1.3229166"
           id="circle7674" />
      </g>
    </symbol>
    <symbol
       id="MotorBikeTrail">
      <title
         id="title7858">Motorbike Trail</title>
      <g
         style="stroke:none"
         id="g7872">
        <path
           style="stroke-width:0.26458332"
           inkscape:connector-curvature="0"
           d="M 9.6903646,6.9453125 H 11.310937 A 0.46302085,0.46302085 0 0 1 11.310937,7.8713542 H 9.3927083 C 9.1942708,7.8713542 8.9627604,7.8052082 8.7973958,7.540625 L 8.0697917,6.4161458 6.6807292,8.5328125 8.5989583,9.525 C 9.128125,9.7895833 9.128125,10.186458 9.128125,10.451042 V 14.022917 A 0.72760417,0.72760417 0 0 1 7.6729167,14.022917 V 11.1125 L 4.6302083,9.4588542 C 4.1010417,9.128125 4.0348958,8.4666667 4.2994792,8.0697917 L 6.5484375,4.6302083 C 6.8791667,4.1341146 7.7390625,4.0348958 8.1359375,4.5640623 Z"
           id="path7860" />
        <path
           style="stroke-width:0.26458332"
           inkscape:connector-curvature="0"
           d="M 7.0114583,11.575521 V 12.236979 L 3.4395833,10.252604 C 2.778125,9.921875 2.1166667,9.9880208 1.5875,10.252604 1.4552083,10.31875 1.2567708,10.120312 1.4552083,9.921875 2.1166667,9.3596354 3.175,9.3927083 3.8364583,9.7895833 Z"
           id="path7862" />
        <path
           style="stroke-width:0.26458332"
           inkscape:connector-curvature="0"
           d="M 10.583333,14.022917 C 10.384896,14.221354 10.120312,14.419792 9.7895833,14.419792 V 10.252604 L 12.633854,9.4588542 13.361458,10.847917 Z"
           id="path7864" />
        <path
           style="stroke-width:0.26458332"
           inkscape:connector-curvature="0"
           d="M 14.783594,11.277865 13.49375,8.6651042 C 13.295312,8.2682292 12.964583,8.0697917 12.567708,8.0697917 H 11.707812 C 11.310937,8.0697917 11.310937,8.6651042 11.707812,8.6651042 H 12.567708 C 12.7,8.6651042 12.898437,8.7973958 12.964583,8.9958333 L 14.188281,11.476302 Z"
           id="path7866" />
        <path
           style="stroke-width:0.26458332"
           inkscape:connector-curvature="0"
           d="M 16.271875,9.525 C 15.544271,9.1611979 14.948958,9.2604167 14.485937,9.7234375 L 14.155208,9.0619792 C 14.948958,8.73125 15.875,8.6651042 16.503385,9.2604167 16.66875,9.4257812 16.470312,9.6242187 16.271875,9.525 Z"
           id="path7868" />
        <path
           style="stroke-width:0.26458332"
           inkscape:connector-curvature="0"
           d="M 10.120312,2.6458333 A 1.3229167,1.3229167 0 0 1 7.6729167,3.6380208 H 6.9453125 A 1.9182292,1.9182292 0 1 1 10.649479,2.6458333 Z"
           id="path7870" />
      </g>
      <g
         style="fill:none;stroke-width:3"
         id="g7878">
        <circle
           style="stroke-width:0.79374999"
           cx="4.1010418"
           cy="14.353646"
           r="2.3151042"
           id="circle7874" />
        <circle
           style="stroke-width:0.79374999"
           cx="15.411979"
           cy="14.353646"
           r="2.3151042"
           id="circle7876" />
      </g>
    </symbol>
  </defs>
  <sodipodi:namedview
     id="base"
     pagecolor="#ffffff"
     bordercolor="#666666"
     borderopacity="1.0"
     inkscape:pageopacity="0"
     inkscape:pageshadow="2"
     inkscape:zoom="0.64"
     inkscape:cx="129.31087"
     inkscape:cy="250.54276"
     inkscape:document-units="px"
     inkscape:current-layer="svg8"
     showgrid="false"
     inkscape:snap-bbox="true"
     inkscape:bbox-nodes="true"
     inkscape:snap-object-midpoints="true"
     inkscape:window-width="1280"
     inkscape:window-height="737"
     inkscape:window-x="-8"
     inkscape:window-y="324"
     inkscape:window-maximized="1"
     showguides="false"
     inkscape:snap-text-baseline="true"
     inkscape:lockguides="true"
     inkscape:snap-global="true"
     inkscape:snap-bbox-edge-midpoints="true"
     inkscape:bbox-paths="true"
     inkscape:snap-bbox-midpoints="true"
     inkscape:snap-others="true"
     inkscape:snap-grids="false"
     inkscape:measure-start="-841.899,1071.71"
     inkscape:measure-end="7.6543,662.913"
     units="px"
     inkscape:showpageshadow="false"
     showborder="true"
     inkscape:pagecheckerboard="false"
     objecttolerance="10"
     inkscape:snap-perpendicular="true"
     gridtolerance="10"
     guidetolerance="10"
     inkscape:snap-tangential="true"
     inkscape:snap-center="true"
     scale-x="0.26458">
    <sodipodi:guide
       position="0,0"
       orientation="0,793.70079"
       id="guide4552"
       inkscape:locked="true" />
    <sodipodi:guide
       position="210,0"
       orientation="-1122.5197,0"
       id="guide4554"
       inkscape:locked="true" />
    <sodipodi:guide
       position="210,297"
       orientation="0,-793.70079"
       id="guide4556"
       inkscape:locked="true" />
    <sodipodi:guide
       position="0,297"
       orientation="1122.5197,0"
       id="guide4558"
       inkscape:locked="true" />
  </sodipodi:namedview>
  <metadata
     id="metadata5">
    <rdf:RDF>
      <cc:Work
         rdf:about="">
        <dc:format>image/svg+xml</dc:format>
        <dc:type
           rdf:resource="http://purl.org/dc/dcmitype/StillImage" />
        <dc:title />
      </cc:Work>
    </rdf:RDF>
  </metadata>
  <path
     style="fill:#464646;fill-opacity:1;stroke-width:0.261446"
     d="M 20.363546,1.490638 19.374909,2.1054439 C 18.830941,2.4434762 18.154086,3.1737881 17.871296,3.7287535 17.363326,4.7242654 17.356449,5.5888798 17.356449,68.427348 17.356449,116.34732 17.432101,132.25866 17.661096,132.68832 17.828507,133.00292 18.151556,133.4026 18.379704,133.57846 18.608002,133.75362 19.174986,133.90009 19.639141,133.90466 20.240277,133.91057 27.270287,130.5199 44.018974,122.1488 L 67.554204,110.38526 91.089369,122.1488 C 107.83767,130.5199 114.86823,133.91057 115.4691,133.90466 116.41263,133.89537 116.9957,133.53711 117.44802,132.68832 117.67652,132.25866 117.75157,116.34732 117.75157,68.427348 117.75157,5.5888798 117.74523,4.7242654 117.23732,3.7287535 116.9536,3.1737881 116.27734,2.4434762 115.73382,2.1054439 L 114.7453,1.490638 H 67.554204 Z M 67.041871,19.283101 C 70.092596,19.266285 73.14284,19.619846 76.085254,20.360824 88.977479,23.607873 99.248004,33.779723 102.56966,46.591561 103.51809,50.249715 103.83052,53.109326 103.70883,57.015928 103.50062,63.703218 101.85728,69.335809 98.513899,74.823782 L 97.372716,76.697738 117.07661,94.633163 C 131.83625,109.41756 131.36703,108.82865 131.36703,112.57361 131.36703,114.34446 131.26875,114.84623 130.69153,116.02142 129.89693,117.63935 128.25379,119.23972 126.65658,119.95048 125.22342,120.58818 122.23909,120.7595 120.98377,120.27647 120.50189,120.09099 119.73407,119.74974 119.2772,119.51867 118.8206,119.28749 112.6226,113.2907 105.50445,106.19228 L 87.901141,86.171917 86.225416,87.193529 C 76.016374,93.419421 63.381563,94.296272 52.483665,89.535313 39.124518,83.699051 30.474616,70.488307 30.474616,55.920415 30.474616,43.118872 37.025819,31.45107 48.057803,24.602991 53.618172,21.15146 60.330213,19.320098 67.041871,19.283101 Z M 67.122454,28.936346 C 65.177697,28.936346 63.233129,29.094686 61.745119,29.411495 57.77446,30.256662 54.065938,31.93606 50.86743,34.33685 49.007007,35.7333 45.964335,38.926937 44.718292,40.791291 38.263479,50.448903 38.584703,62.874213 45.529746,72.159542 46.755677,73.798568 49.428742,76.480043 50.988996,77.636036 54.631459,80.334664 59.377957,82.22317 63.970639,82.801389 66.134346,83.073715 70.164149,82.886745 72.532201,82.40418 87.588399,79.33599 97.105116,64.174951 93.326167,49.277607 90.782989,39.252188 82.755771,31.594447 72.500485,29.411495 71.012506,29.094686 69.06723,28.936346 67.122454,28.936346 Z"
     id="path884"
     inkscape:connector-curvature="0"
     sodipodi:nodetypes="cccsccccccccscccccsccccccsccccccccscsscccccccccs" />
</svg>
